<svg viewBox="0 0 1889 433" fill="none" xmlns="http://www.w3.org/2000/svg">
<path d="M272.653 415.12C272.653 417.341 272.155 419.244 271.113 420.739C270.07 422.235 268.394 423.503 265.947 424.546C263.5 425.588 260.237 426.268 256.068 426.675C251.9 427.083 246.779 427.264 240.707 427.264C234.227 427.264 228.971 427.083 224.893 426.675C220.814 426.268 217.552 425.542 215.014 424.546C212.477 423.549 210.664 422.28 209.531 420.739C208.398 419.199 207.855 417.341 207.855 415.12V385.032C193.898 400.031 179.216 411.677 163.945 419.969C148.629 428.261 131.682 432.43 113.058 432.43C92.3949 432.43 74.9037 428.443 60.6299 420.422C46.356 412.402 34.7104 401.617 25.6929 388.068C16.6755 374.519 10.1503 358.659 6.07204 340.488C2.03911 322.363 0 303.241 0 283.212C0 259.105 2.58285 237.445 7.74863 218.186C12.9144 198.928 20.4818 182.524 30.4055 168.976C40.3293 155.381 52.7 144.959 67.4723 137.664C82.2446 130.368 99.2826 126.743 118.541 126.743C133.721 126.743 147.497 129.824 159.867 136.032C172.238 142.24 184.473 151.258 196.617 163.221V16.4492C196.617 14.4101 197.16 12.5975 198.293 10.9662C199.426 9.33491 201.42 7.97548 204.365 6.84263C207.311 5.70979 211.208 4.84886 216.056 4.25978C220.905 3.6707 227.113 3.35352 234.59 3.35352C242.067 3.35352 248.275 3.6707 253.123 4.25978C257.972 4.84886 261.823 5.70979 264.678 6.84263C267.533 7.97548 269.527 9.33491 270.75 10.9662C271.974 12.5975 272.563 14.4101 272.563 16.4492V415.166L272.653 415.12ZM197.296 234.001C186.376 220.226 175.863 209.667 165.849 202.417C155.834 195.167 145.321 191.497 134.401 191.497C124.477 191.497 115.913 193.989 108.708 198.928C101.503 203.867 95.7481 210.528 91.398 218.821C87.0479 227.113 83.7852 236.403 81.6555 246.644C79.5257 256.884 78.4835 267.352 78.4835 278.091C78.4835 289.42 79.3898 300.476 81.2024 311.216C83.0149 321.955 86.0056 331.516 90.1745 339.945C94.3434 348.373 99.8264 355.079 106.714 360.155C113.602 365.23 122.302 367.767 132.86 367.767C138.117 367.767 143.237 366.997 148.222 365.502C153.206 364.006 158.236 361.514 163.402 358.07C168.567 354.626 173.869 350.14 179.352 344.567C184.835 338.993 190.817 332.151 197.296 324.04V234.092V234.001Z" fill="#231F20"/>
<path d="M591.074 276.826C591.074 299.936 588.038 321.007 581.966 340.038C575.894 359.07 566.65 375.474 554.325 389.249C542 403.025 526.457 413.673 507.833 421.15C489.209 428.627 467.413 432.388 442.49 432.388C417.568 432.388 397.403 429.035 379.595 422.374C361.786 415.713 346.969 405.97 335.232 393.192C323.496 380.413 314.751 364.734 309.086 346.11C303.422 327.486 300.567 306.189 300.567 282.309C300.567 258.428 303.649 238.082 309.857 218.96C316.019 199.837 325.309 183.388 337.679 169.749C350.05 156.064 365.502 145.506 384.035 137.984C402.569 130.462 424.319 126.746 449.197 126.746C474.074 126.746 494.556 130.054 512.41 136.625C530.218 143.195 544.99 152.892 556.636 165.625C568.281 178.359 576.936 194.082 582.601 212.706C588.265 231.33 591.12 252.719 591.12 276.826H591.074ZM512.364 279.862C512.364 266.494 511.322 254.169 509.192 242.931C507.063 231.693 503.483 221.905 498.408 213.613C493.332 205.32 486.626 198.84 478.198 194.173C469.769 189.506 459.211 187.195 446.433 187.195C435.104 187.195 425.18 189.279 416.661 193.403C408.142 197.526 401.164 203.644 395.681 211.619C390.198 219.594 386.12 229.246 383.356 240.484C380.592 251.722 379.232 264.546 379.232 278.91C379.232 292.278 380.365 304.603 382.585 315.841C384.806 327.079 388.431 336.866 393.37 345.159C398.309 353.451 405.061 359.886 413.58 364.463C422.099 369.039 432.612 371.305 445.164 371.305C456.719 371.305 466.733 369.22 475.252 365.097C483.771 360.973 490.75 354.901 496.233 347.017C501.715 339.132 505.748 329.526 508.377 318.288C511.005 307.05 512.319 294.226 512.319 279.862H512.364Z" fill="#231F20"/>
<path d="M838.352 371.933C838.352 377.189 838.216 381.585 837.899 385.164C837.581 388.744 837.174 391.689 836.675 394.136C836.177 396.583 835.542 398.532 834.863 400.073C834.183 401.613 832.597 403.516 830.15 405.827C827.703 408.138 823.579 410.993 817.689 414.346C811.798 417.7 805.137 420.69 797.615 423.319C790.093 425.947 781.981 428.077 773.145 429.708C764.309 431.339 755.246 432.155 745.957 432.155C725.113 432.155 706.624 428.892 690.493 422.412C674.406 415.932 660.858 406.371 649.937 393.683C639.016 380.995 630.724 365.589 625.15 347.327C619.577 329.066 616.812 308.221 616.812 284.749C616.812 257.606 620.211 234.133 627.008 214.422C633.805 194.71 643.276 178.307 655.42 165.347C667.564 152.387 681.974 142.781 698.559 136.482C715.143 130.183 733.405 127.057 753.252 127.057C761.364 127.057 769.294 127.782 777.088 129.186C784.882 130.591 792.177 132.54 798.974 134.941C805.771 137.343 811.843 140.107 817.19 143.143C822.537 146.179 826.344 148.807 828.564 151.028C830.784 153.248 832.37 155.151 833.277 156.647C834.183 158.142 834.908 160.136 835.406 162.583C835.905 165.03 836.313 168.02 836.63 171.555C836.947 175.089 837.083 179.394 837.083 184.469C837.083 196.206 836.086 204.453 834.047 209.256C832.008 214.059 829.38 216.416 826.162 216.416C822.719 216.416 819.093 215.011 815.242 212.156C811.39 209.301 806.813 206.175 801.557 202.731C796.301 199.287 790.002 196.16 782.706 193.305C775.411 190.451 766.711 189.046 756.56 189.046C736.713 189.046 721.533 196.704 710.975 211.975C700.417 227.246 695.16 249.721 695.16 279.266C695.16 293.857 696.474 306.726 699.102 317.873C701.731 329.02 705.628 338.355 710.793 345.832C715.959 353.309 722.439 358.928 730.233 362.689C738.027 366.45 747.09 368.308 757.421 368.308C767.753 368.308 777.042 366.722 784.61 363.595C792.177 360.468 798.838 356.979 804.502 353.127C810.167 349.276 814.925 345.787 818.776 342.66C822.628 339.533 825.845 337.947 828.519 337.947C830.331 337.947 831.872 338.446 833.095 339.488C834.319 340.53 835.271 342.388 835.996 345.107C836.721 347.826 837.264 351.315 837.672 355.574C838.08 359.834 838.261 365.317 838.261 371.978L838.352 371.933Z" fill="#231F20"/>
<path d="M1124.91 415.118C1124.91 417.157 1124.42 418.924 1123.37 420.42C1122.33 421.915 1120.61 423.184 1118.07 424.226C1115.53 425.268 1112.18 425.993 1108.06 426.492C1103.93 426.99 1098.68 427.262 1092.42 427.262C1085.72 427.262 1080.33 426.99 1076.16 426.492C1071.99 425.993 1068.73 425.223 1066.28 424.226C1063.83 423.229 1062.11 421.96 1061.11 420.42C1060.12 418.879 1059.57 417.112 1059.57 415.118V383.806C1044.57 400.028 1029.35 412.172 1013.85 420.284C998.353 428.395 982.312 432.428 965.682 432.428C947.058 432.428 931.379 429.392 918.737 423.32C906.094 417.247 895.853 408.955 888.059 398.397C880.265 387.839 874.692 375.649 871.338 361.783C867.985 347.917 866.309 330.653 866.309 309.99V144.05C866.309 142.011 866.852 140.244 867.985 138.749C869.118 137.253 871.112 135.985 874.057 134.942C877.003 133.9 880.945 133.175 885.929 132.677C890.914 132.178 897.031 131.906 904.327 131.906C911.622 131.906 918.012 132.178 922.86 132.677C927.709 133.175 931.606 133.945 934.551 134.942C937.497 135.939 939.581 137.208 940.759 138.749C941.937 140.289 942.572 142.057 942.572 144.05V297.211C942.572 311.394 943.478 322.224 945.291 329.746C947.103 337.269 949.913 343.658 953.628 349.05C957.344 354.443 962.147 358.566 967.902 361.512C973.657 364.457 980.409 365.907 988.112 365.907C997.855 365.907 1007.6 362.372 1017.43 355.258C1027.26 348.144 1037.73 337.858 1048.88 324.264V144.05C1048.88 142.011 1049.42 140.244 1050.55 138.749C1051.69 137.253 1053.68 135.985 1056.63 134.942C1059.57 133.9 1063.47 133.175 1068.32 132.677C1073.17 132.178 1079.37 131.906 1086.85 131.906C1094.33 131.906 1100.54 132.178 1105.38 132.677C1110.23 133.175 1114.08 133.945 1116.94 134.942C1119.79 135.939 1121.79 137.208 1123.01 138.749C1124.23 140.289 1124.82 142.057 1124.82 144.05V415.118H1124.91Z" fill="#231F20"/>
<path d="M1345.37 40.6918C1345.37 46.5826 1345.18 51.2953 1344.78 54.8298C1344.37 58.3643 1343.78 61.1284 1342.96 63.0316C1342.15 64.9347 1341.24 66.2941 1340.25 66.9738C1339.25 67.6536 1338.12 68.016 1336.89 68.016C1335.49 68.016 1333.9 67.6536 1332.18 66.9738C1330.46 66.2941 1328.33 65.5238 1325.79 64.7082C1323.25 63.8925 1320.26 63.1222 1316.82 62.4425C1313.37 61.7628 1309.34 61.4003 1304.67 61.4003C1299.19 61.4003 1294.48 62.2612 1290.54 63.9831C1286.59 65.705 1283.29 68.4239 1280.66 72.185C1278.03 75.946 1276.08 80.7945 1274.9 86.776C1273.72 92.7574 1273.09 100.098 1273.09 108.799V133.721H1322.62C1324.43 133.721 1326.11 134.22 1327.65 135.262C1329.19 136.304 1330.41 137.935 1331.45 140.292C1332.5 142.648 1333.22 145.82 1333.72 149.853C1334.22 153.886 1334.49 158.87 1334.49 164.761C1334.49 175.908 1333.49 183.838 1331.45 188.596C1329.42 193.354 1326.47 195.756 1322.66 195.756H1273.14V415.165C1273.14 417.205 1272.55 418.972 1271.32 420.467C1270.1 421.962 1268.06 423.231 1265.25 424.273C1262.44 425.316 1258.45 426.041 1253.38 426.539C1248.3 427.038 1242.14 427.31 1234.85 427.31C1227.55 427.31 1221.43 427.038 1216.45 426.539C1211.46 426.041 1207.52 425.27 1204.58 424.273C1201.63 423.277 1199.59 422.008 1198.5 420.467C1197.42 418.926 1196.83 417.159 1196.83 415.165V195.756H1162.8C1158.94 195.756 1156.04 193.354 1154.14 188.596C1152.24 183.838 1151.24 175.863 1151.24 164.761C1151.24 158.87 1151.51 153.931 1152.01 149.853C1152.51 145.775 1153.24 142.603 1154.14 140.292C1155.05 137.981 1156.27 136.304 1157.77 135.262C1159.26 134.22 1161.07 133.721 1163.07 133.721H1196.78V110.928C1196.78 92.4855 1198.59 76.3538 1202.26 62.4425C1205.94 48.5311 1211.64 37.0214 1219.44 27.7774C1227.23 18.5334 1237.16 11.6003 1249.21 6.9783C1261.26 2.35629 1275.49 0 1291.9 0C1299.78 0 1307.3 0.679719 1314.37 1.99382C1321.44 3.30792 1327.01 4.71266 1331.09 6.25333C1335.17 7.794 1337.89 9.19874 1339.29 10.5128C1340.7 11.8269 1341.88 13.7754 1342.78 16.2677C1343.69 18.7599 1344.37 22.0226 1344.78 26.0102C1345.18 29.9978 1345.37 34.8917 1345.37 40.7372V40.6918Z" fill="#231F20"/>
<path d="M1602.52 271.653C1602.52 280.987 1600.44 287.875 1596.32 292.316C1592.19 296.757 1586.44 299.022 1579.14 299.022H1414.11C1414.11 310.577 1415.47 321.045 1418.23 330.47C1421 339.895 1425.3 347.871 1431.28 354.486C1437.26 361.057 1444.97 366.087 1454.39 369.531C1463.82 372.974 1475.1 374.696 1488.29 374.696C1501.47 374.696 1513.39 373.745 1523.54 371.796C1533.69 369.848 1542.44 367.763 1549.82 365.407C1557.21 363.051 1563.33 360.966 1568.22 359.018C1573.11 357.069 1577.01 356.118 1580.09 356.118C1581.91 356.118 1583.45 356.48 1584.67 357.16C1585.89 357.84 1586.89 359.154 1587.71 360.966C1588.52 362.779 1589.07 365.362 1589.38 368.715C1589.7 372.068 1589.84 376.282 1589.84 381.312C1589.84 385.753 1589.75 389.559 1589.52 392.686C1589.29 395.813 1589.02 398.531 1588.61 400.752C1588.2 402.972 1587.62 404.875 1586.8 406.371C1585.98 407.866 1584.94 409.362 1583.63 410.766C1582.31 412.171 1578.73 414.119 1572.84 416.521C1566.95 418.923 1559.48 421.324 1550.37 423.681C1541.26 426.037 1530.84 428.031 1519.06 429.753C1507.27 431.475 1494.72 432.336 1481.35 432.336C1457.25 432.336 1436.13 429.3 1418.01 423.228C1399.88 417.156 1384.75 407.911 1372.56 395.586C1360.37 383.261 1351.35 367.627 1345.37 348.777C1339.39 329.926 1336.4 307.858 1336.4 282.528C1336.4 257.198 1339.52 236.67 1345.82 217.367C1352.12 198.063 1361.23 181.614 1373.19 168.156C1385.15 154.698 1399.7 144.411 1416.78 137.297C1433.87 130.183 1453.21 126.648 1474.69 126.648C1497.4 126.648 1516.79 130.002 1532.88 136.663C1548.96 143.324 1562.19 152.613 1572.53 164.486C1582.86 176.358 1590.47 190.36 1595.32 206.582C1600.17 222.804 1602.61 240.431 1602.61 259.463V271.607L1602.52 271.653ZM1528.39 249.766C1528.98 228.287 1524.67 211.431 1515.48 199.151C1506.28 186.871 1492.05 180.753 1472.79 180.753C1463.05 180.753 1454.62 182.566 1447.41 186.236C1440.21 189.907 1434.23 194.8 1429.47 200.963C1424.71 207.126 1421.04 214.421 1418.55 222.85C1416.06 231.278 1414.56 240.205 1414.15 249.766H1528.44H1528.39Z" fill="#231F20"/>
<path d="M1888.86 415.123C1888.86 417.162 1888.28 418.929 1887.05 420.425C1885.83 421.92 1883.79 423.189 1880.98 424.231C1878.17 425.273 1874.23 425.998 1869.29 426.497C1864.35 426.995 1858.19 427.267 1850.89 427.267C1843.6 427.267 1837.16 426.995 1832.22 426.497C1827.28 425.998 1823.34 425.228 1820.53 424.231C1817.72 423.234 1815.68 421.965 1814.46 420.425C1813.24 418.884 1812.65 417.117 1812.65 415.123V260.467C1812.65 247.281 1811.7 236.949 1809.75 229.472C1807.8 221.995 1805.03 215.561 1801.41 210.168C1797.78 204.776 1793.07 200.653 1787.27 197.707C1781.47 194.762 1774.76 193.312 1767.06 193.312C1757.32 193.312 1747.53 196.846 1737.56 203.96C1727.59 211.075 1717.31 221.361 1706.57 234.955V415.168C1706.57 417.207 1705.98 418.975 1704.75 420.47C1703.53 422.011 1701.45 423.234 1698.55 424.276C1695.65 425.319 1691.7 426.044 1686.86 426.542C1682.01 427.04 1675.8 427.312 1668.32 427.312C1660.85 427.312 1654.64 427.04 1649.79 426.542C1644.94 426.044 1641.04 425.273 1638.1 424.276C1635.15 423.279 1633.07 422.011 1631.89 420.47C1630.71 418.929 1630.08 417.162 1630.08 415.168V144.101C1630.08 142.062 1630.58 140.295 1631.62 138.799C1632.66 137.304 1634.47 136.035 1637.1 134.993C1639.73 133.951 1643.13 133.226 1647.3 132.727C1651.47 132.229 1656.68 131.957 1662.93 131.957C1669.18 131.957 1674.8 132.229 1679.02 132.727C1683.23 133.226 1686.58 133.996 1688.89 134.993C1691.21 135.99 1692.88 137.258 1693.92 138.799C1694.97 140.34 1695.46 142.107 1695.46 144.101V175.413C1710.46 159.19 1725.69 147.046 1741.19 138.935C1756.68 130.824 1772.86 126.791 1789.67 126.791C1808.12 126.791 1823.66 129.827 1836.3 135.899C1848.94 141.971 1859.18 150.218 1866.98 160.686C1874.77 171.153 1880.39 183.343 1883.83 197.299C1887.28 211.256 1889 228.113 1889 247.734V415.168L1888.86 415.123Z" fill="#231F20"/>
</svg>