<svg viewBox="0 0 98 98" fill="none" xmlns="http://www.w3.org/2000/svg">
<g clip-path="url(#clip0_8760_12537)">
<path d="M94.9204 48.3208C94.9204 55.5908 93.9604 62.2308 92.0504 68.2208C90.1404 74.2208 87.2304 79.3808 83.3404 83.7208C79.4504 88.0608 74.5704 91.4108 68.7004 93.7708C62.8304 96.1308 55.9704 97.3108 48.1304 97.3108C40.2904 97.3108 33.9404 96.2608 28.3204 94.1508C22.7104 92.0508 18.0504 88.9808 14.3504 84.9608C10.6504 80.9408 7.91043 76.0008 6.12043 70.1308C4.33043 64.2608 3.44043 57.5608 3.44043 50.0408C3.44043 42.5208 4.41043 36.1208 6.36043 30.0908C8.31043 24.0608 11.2204 18.9008 15.1104 14.5908C19.0004 10.2808 23.8604 6.95078 29.7004 4.59078C35.5404 2.23078 42.3804 1.05078 50.2204 1.05078C58.0604 1.05078 64.5104 2.09078 70.1204 4.16078C75.7304 6.23078 80.3704 9.28078 84.0404 13.3008C87.7104 17.3208 90.4304 22.2608 92.2204 28.1308C94.0104 34.0008 94.9004 40.7308 94.9004 48.3208H94.9204Z" fill="#0E7C3F"/>
<path d="M35.4203 72.2507C35.4203 72.2507 35.3603 72.1207 35.2703 71.9207C34.2203 69.6807 27.7903 56.5707 16.3803 48.5207C13.6003 46.5507 14.4703 43.4207 16.4303 40.6407C18.4003 37.8607 20.7103 36.4907 23.4903 38.4507C31.1503 43.8507 37.0703 51.7307 41.1403 58.4107C46.9103 45.7107 57.7503 27.7207 74.7803 21.5007C75.9003 21.0907 76.8603 21.0807 77.6903 21.3907C79.2303 21.9607 80.3003 23.6207 81.0603 25.7007C82.2303 28.9107 82.2103 31.9207 79.0103 33.0807C59.0003 40.3807 49.1403 70.8707 47.4003 74.1607C45.4803 77.8107 38.8003 79.2507 35.4203 72.2507Z" fill="white"/>
</g>
<defs>
<clipPath id="clip0_8760_12537">
<rect width="98" height="98" fill="white"/>
</clipPath>
</defs>
</svg>