<svg width="255" height="84" viewBox="0 0 255 84" fill="none" xmlns="http://www.w3.org/2000/svg">
<g clip-path="url(#clip0_16_492)">
<path d="M74.4495 45.714C74.4495 54.2508 74.4595 62.7849 74.4445 71.3216C74.437 75.438 72.7136 77.1418 68.6257 77.1443C54.09 77.1443 39.5543 77.1443 25.0186 77.1443C20.4547 77.1443 18.8867 75.5686 18.8491 70.9698C18.8316 68.8363 18.7414 66.7002 18.809 64.5692C18.8466 63.368 18.3982 62.986 17.256 63.0011C14.1249 63.0438 10.9938 63.0161 7.86277 63.0136C7.41439 63.0136 6.96853 63.0036 6.52016 62.991C1.13721 62.8377 0.0776537 61.7722 0.0601196 56.3918C0.0275564 46.4529 0.00751754 36.5139 2.95325e-06 26.5724C-0.00250191 22.1973 1.58809 20.6417 5.99664 20.6342C9.68631 20.6291 13.3785 20.5764 17.0656 20.6618C18.4333 20.6945 18.9217 20.32 18.8842 18.8926C18.7865 15.1885 18.824 11.4818 18.8291 7.77507C18.8341 3.51803 20.5599 1.77902 24.8532 1.76897C33.0166 1.74886 41.1774 1.76394 49.3408 1.76394C51.4649 1.76394 53.5915 1.83179 55.7131 1.74635C57.8072 1.66091 59.5155 2.34696 60.9859 3.82713C65.0513 7.92083 69.2144 11.919 73.172 16.1158C73.9811 16.9727 74.3919 18.5283 74.4069 19.7697C74.5096 28.417 74.462 37.0642 74.462 45.714H74.4495ZM70.3641 46.6338C70.3641 46.6338 70.3791 46.6338 70.3866 46.6338C70.3866 38.5494 70.3541 30.4651 70.4142 22.3807C70.4242 20.9005 69.9783 20.4256 68.503 20.501C66.1609 20.6216 63.8089 20.5814 61.4618 20.5161C58.3182 20.4256 56.4972 18.5634 56.4346 15.4197C56.3845 12.9494 56.3544 10.4791 56.4095 8.00878C56.4345 6.96085 56.1916 6.46328 55.0469 6.46328C44.817 6.48087 34.5896 6.4683 24.3598 6.45574C23.443 6.45574 22.9746 6.6794 22.9871 7.8002C23.0272 11.5597 22.9896 15.3242 22.8519 19.0811C22.8018 20.4356 23.3228 20.6668 24.5026 20.6518C28.583 20.5965 32.6634 20.5965 36.7438 20.6417C39.5593 20.6719 41.6108 22.3707 41.6233 24.8937C41.6809 36.1772 41.6734 47.4606 41.6233 58.744C41.6133 60.9957 40.4235 62.2497 38.1966 62.6216C36.824 62.8503 35.4213 62.9583 34.0286 62.9835C30.8424 63.0388 27.6562 63.0488 24.47 62.996C23.2977 62.9759 22.9496 63.3403 22.9946 64.5466C23.0748 66.6751 22.9671 68.8111 22.8769 70.9422C22.8293 72.0906 23.0472 72.6234 24.4299 72.6158C39.1861 72.5505 53.9422 72.5455 68.6984 72.5983C70.0911 72.6033 70.3941 72.1685 70.3866 70.8844C70.3415 62.8 70.3641 54.7157 70.3641 46.6313V46.6338ZM14.6309 43.9876C14.448 43.5704 14.3203 43.382 14.2802 43.1759C13.5363 39.1576 12.8274 35.1343 12.0484 31.121C11.9332 30.5229 11.5524 29.5227 11.2268 29.495C9.38823 29.3367 7.52962 29.4197 5.60588 29.4197C7.41189 37.494 9.16028 45.2416 10.8611 53.0018C11.084 54.017 11.5249 54.4116 12.5644 54.3462C13.8444 54.2658 15.1344 54.2884 16.4169 54.3412C17.2886 54.3764 17.6994 54.1226 17.8672 53.1802C18.3631 50.3681 18.9593 47.5737 19.5555 44.7817C19.9011 43.1684 20.3194 41.5701 20.8079 39.5371C21.6646 43.3317 22.4386 46.6338 23.1499 49.9485C24.1193 54.4669 24.0993 54.4342 28.6782 54.3488C30.1235 54.3211 30.6971 53.7406 30.9902 52.3208C32.0973 46.9454 33.3598 41.6002 34.532 36.2375C35.0055 34.0662 35.3937 31.8749 35.8947 29.3217C34.264 29.3217 32.8964 29.3443 31.5262 29.3141C30.4616 29.2915 29.9957 29.6684 29.7953 30.8269C29.0739 34.9985 28.1897 39.14 27.3205 43.5353C26.4614 40.0623 25.5947 36.8305 24.8708 33.5636C23.9064 29.2035 23.954 29.2312 19.3952 29.2814C18.2279 29.294 17.767 29.6634 17.529 30.832C16.6473 35.1544 15.6404 39.4541 14.6309 43.9876ZM61.1186 9.88098C60.9107 9.91365 60.7053 9.94631 60.4974 9.97898C60.4974 11.7306 60.4724 13.4821 60.525 15.2312C60.5325 15.4674 60.9132 15.8896 61.1312 15.8946C63.0324 15.9474 64.9361 15.9248 66.474 15.9248C64.6906 13.9118 62.9046 11.8939 61.1161 9.87846L61.1186 9.88098Z" fill="#1F1F1F"/>
<path d="M46.8134 34.609V30.0705C48.4916 30.0705 50.0997 30.0705 51.7054 30.0705C55.668 30.0705 59.6332 30.1057 63.5959 30.0504C64.7206 30.0353 65.1665 30.3117 65.154 31.5381C65.1189 34.7346 65.1765 34.7723 61.9878 34.7849C57.5216 34.8025 53.058 34.7573 48.5918 34.7296C48.0457 34.7271 47.4997 34.6592 46.8134 34.6115V34.609Z" fill="#1F1F1F"/>
<path d="M46.8234 44.0632V39.5071C47.3995 39.5071 47.9255 39.5071 48.454 39.5071C53.4187 39.5071 58.3833 39.5498 63.3454 39.4769C64.7006 39.4568 65.3092 39.7935 65.1389 41.2385C65.0362 42.1131 65.1189 43.0102 65.1189 44.0632H46.8234Z" fill="#1F1F1F"/>
<path d="M46.7833 48.9383H51.5576C55.5779 48.9383 59.6007 48.976 63.621 48.9132C64.7983 48.8956 65.159 49.2625 65.1439 50.4436C65.1064 53.5422 65.159 53.5949 62.0429 53.6125C57.4089 53.6427 52.7724 53.5673 48.1384 53.5874C47.0663 53.5924 46.6105 53.2934 46.7583 52.1273C46.8835 51.1422 46.7833 50.132 46.7833 48.9358V48.9383Z" fill="#1F1F1F"/>
<path d="M138.834 45.0924C137.208 45.0924 135.58 45.0942 133.954 45.0924C123.302 45.0777 112.649 45.0629 101.997 45.0482C99.7961 45.0445 100.014 45.3597 100.001 42.9691C100.001 42.7295 100.035 42.488 100.072 41.9959H138.914C139.018 41.8042 139.123 41.6144 139.226 41.4227C138.34 40.6504 137.415 39.9205 136.576 39.1003C133.544 36.1384 130.571 33.1137 127.508 30.185C126.685 29.3979 126.53 28.8819 127.479 28.1501C127.894 27.8294 128.191 27.3557 128.499 27C134.076 32.5424 139.549 37.9834 145 43.4004C139.512 48.9299 134.061 54.4225 128.545 59.9833C128.661 59.9998 128.61 60.0091 128.586 59.9869C125.905 57.5503 126.429 58.1254 128.447 56.0813C131.483 53.0069 134.587 49.997 137.649 46.9485C138.131 46.4692 138.55 45.9237 138.996 45.4094C138.941 45.3044 138.887 45.1993 138.833 45.0924H138.834Z" fill="#1F1F1F"/>
<path d="M192.606 63.069C189.125 63.069 185.703 63.069 182.281 63.069C180.217 63.069 178.153 63.1016 176.092 63.0589C173.109 62.9961 171.826 61.7597 171.816 58.8119C171.776 47.7572 171.756 36.6999 171.773 25.6452C171.778 22.1973 172.968 21.0137 176.407 20.9659C180.087 20.9132 183.767 20.9534 187.414 20.9534C189.891 5.8401 202.075 -0.274058 211.501 0.00991272C218.229 0.210954 224.007 3.17882 228.479 8.45113C232.905 13.6707 234.48 19.7446 233.892 26.6077C237.944 26.5373 241.602 27.359 244.888 29.4851C252.23 34.2372 255.756 40.9947 254.865 49.7374C254.003 58.1812 247.919 65.2854 239.811 67.3059C237.153 67.9693 234.237 67.8613 231.464 67.6929C229.603 67.5798 228.779 67.7834 228.281 69.829C226.259 78.1219 219.601 83.9898 210.844 84.0024C201.028 84.0174 194.493 76.589 193.19 69.3942C192.834 67.4341 192.809 65.4161 192.601 63.0715L192.606 63.069ZM234.114 63.177C234.114 63.2122 234.119 63.2449 234.122 63.2801C235.487 63.1745 236.885 63.2248 238.21 62.9358C245.965 61.2495 251.396 53.5019 250.479 45.5482C249.524 37.2779 242.987 31.699 234.786 31.312C226.868 30.9376 218.231 37.5041 218.211 47.2998C218.209 48.7121 218.7 49.3957 219.837 50.1068C223.597 52.459 226.41 55.643 227.762 59.983C228.604 62.6769 229.162 63.0815 232.053 63.172C232.739 63.1921 233.426 63.1745 234.112 63.1745L234.114 63.177ZM213.101 42.0803C213.317 42.1557 213.532 42.2311 213.747 42.3064C214.371 41.1706 215.073 40.0724 215.601 38.8938C217.753 34.109 221.217 30.641 225.911 28.407C229.686 26.6127 229.851 26.394 229.473 22.1797C229.378 21.1192 229.238 20.0537 228.995 19.0209C226.943 10.3409 218.995 4.92788 210.927 4.90275C202.724 4.87762 194.776 9.98909 192.564 19.3476C192.459 19.7949 192.486 20.2749 192.436 20.9534C193.315 20.9534 193.989 20.9534 194.665 20.9534C199.044 20.9534 203.422 20.9483 207.801 20.9534C211.909 20.9609 212.978 21.951 213.014 25.9894C213.054 30.7014 212.993 35.4158 212.988 40.1277C212.988 40.7785 213.061 41.4294 213.099 42.0828L213.101 42.0803ZM197.646 63.069C197.268 66.0218 197.326 68.6705 198.405 71.2438C200.194 75.5109 204.78 79.484 211.691 79.1221C218.159 78.7828 223.501 73.8372 224.265 67.0898C224.992 60.6816 220.641 54.3513 214.521 52.8033C213.414 52.5218 212.996 52.7933 213.009 53.904C213.026 55.3465 213.029 56.7915 213.011 58.2364C212.966 61.9632 211.866 63.0614 208.174 63.069C204.745 63.0765 201.316 63.069 197.649 63.069H197.646ZM183.719 47.5436C183.819 49.4057 183.842 51.2704 184.067 53.1099C184.127 53.5999 184.726 54.2583 185.215 54.4242C190.139 56.0878 195.129 56.7387 199.871 54.002C204.076 51.5744 204.615 45.6261 200.892 42.4597C199.322 41.1228 197.25 40.3739 195.394 39.3813C194.029 38.65 192.574 38.067 191.294 37.2126C190.209 36.4863 190.482 35.4509 191.597 35.084C192.927 34.6493 194.415 34.2623 195.765 34.4281C197.824 34.6794 199.823 35.4233 202.14 36.034C202.14 34.0788 202.19 32.1162 202.087 30.1636C202.072 29.857 201.411 29.4474 200.98 29.3242C196.925 28.1557 192.854 27.9622 188.842 29.475C186.247 30.4526 184.248 32.1514 183.822 35.0413C183.346 38.268 184.273 41.0349 187.233 42.7789C188.466 43.5052 189.776 44.1033 191.061 44.7365C192.461 45.4251 193.936 45.9855 195.267 46.7871C196.727 47.6692 196.677 48.9509 195.089 49.5439C193.854 50.0038 192.343 50.3003 191.101 50.0214C188.704 49.4811 186.409 48.4809 183.722 47.5486L183.719 47.5436Z" fill="black"/>
</g>
<defs>
<clipPath id="clip0_16_492">
<rect width="255" height="84" fill="white"/>
</clipPath>
</defs>
</svg>
