<svg xmlns="http://www.w3.org/2000/svg" viewBox="0 0 16 16" fill="none">
<path d="M8 0C12.4183 0 16 3.58172 16 8C16 12.4183 12.4183 16 8 16C3.58172 16 0 12.4183 0 8C0 3.58172 3.58172 0 8 0ZM10.6003 5.64398L7.24953 9.04242L5.85355 7.64645C5.65829 7.45118 5.34171 7.45118 5.14645 7.64645C4.95118 7.84171 4.95118 8.15829 5.14645 8.35355L6.89645 10.1036C7.09189 10.299 7.40884 10.2988 7.60403 10.1031L11.0283 6.87014C11.2233 6.67462 11.2229 6.35804 11.0274 6.16304C10.8319 5.96803 10.5153 5.96846 10.3203 6.16398Z" fill="#1A791D"/>
</svg>