<svg width="260" height="116" viewBox="0 0 260 116" fill="none" xmlns="http://www.w3.org/2000/svg">
<g clip-path="url(#clip0_16_506)">
<path d="M74.4495 45.714C74.4495 54.2508 74.4595 62.7849 74.4445 71.3216C74.437 75.438 72.7136 77.1418 68.6257 77.1443C54.09 77.1443 39.5543 77.1443 25.0186 77.1443C20.4547 77.1443 18.8867 75.5686 18.8491 70.9698C18.8316 68.8363 18.7414 66.7002 18.809 64.5692C18.8466 63.368 18.3982 62.986 17.256 63.0011C14.1249 63.0438 10.9938 63.0161 7.86277 63.0136C7.41439 63.0136 6.96853 63.0036 6.52016 62.991C1.13721 62.8377 0.0776537 61.7722 0.0601196 56.3918C0.0275564 46.4529 0.00751754 36.5139 2.95325e-06 26.5724C-0.00250191 22.1973 1.58809 20.6417 5.99664 20.6342C9.68631 20.6291 13.3785 20.5764 17.0656 20.6618C18.4333 20.6945 18.9217 20.32 18.8842 18.8926C18.7865 15.1885 18.824 11.4818 18.8291 7.77507C18.8341 3.51803 20.5599 1.77902 24.8532 1.76897C33.0166 1.74886 41.1774 1.76394 49.3408 1.76394C51.4649 1.76394 53.5915 1.83179 55.7131 1.74635C57.8072 1.66091 59.5155 2.34696 60.9859 3.82713C65.0513 7.92083 69.2144 11.919 73.172 16.1158C73.9811 16.9727 74.3919 18.5283 74.4069 19.7697C74.5096 28.417 74.462 37.0642 74.462 45.714H74.4495ZM70.3641 46.6338C70.3641 46.6338 70.3791 46.6338 70.3866 46.6338C70.3866 38.5494 70.3541 30.4651 70.4142 22.3807C70.4242 20.9005 69.9783 20.4256 68.503 20.501C66.1609 20.6216 63.8089 20.5814 61.4618 20.5161C58.3182 20.4256 56.4972 18.5634 56.4346 15.4197C56.3845 12.9494 56.3544 10.4791 56.4095 8.00878C56.4345 6.96085 56.1916 6.46328 55.0469 6.46328C44.817 6.48087 34.5896 6.4683 24.3598 6.45574C23.443 6.45574 22.9746 6.6794 22.9871 7.8002C23.0272 11.5597 22.9896 15.3242 22.8519 19.0811C22.8018 20.4356 23.3228 20.6668 24.5026 20.6518C28.583 20.5965 32.6634 20.5965 36.7438 20.6417C39.5593 20.6719 41.6108 22.3707 41.6233 24.8937C41.6809 36.1772 41.6734 47.4606 41.6233 58.744C41.6133 60.9957 40.4235 62.2497 38.1966 62.6216C36.824 62.8503 35.4213 62.9583 34.0286 62.9835C30.8424 63.0388 27.6562 63.0488 24.47 62.996C23.2977 62.9759 22.9496 63.3403 22.9946 64.5466C23.0748 66.6751 22.9671 68.8111 22.8769 70.9422C22.8293 72.0906 23.0472 72.6234 24.4299 72.6158C39.1861 72.5505 53.9422 72.5455 68.6984 72.5983C70.0911 72.6033 70.3941 72.1685 70.3866 70.8844C70.3415 62.8 70.3641 54.7157 70.3641 46.6313V46.6338ZM14.6309 43.9876C14.448 43.5704 14.3203 43.382 14.2802 43.1759C13.5363 39.1576 12.8274 35.1343 12.0484 31.121C11.9332 30.5229 11.5524 29.5227 11.2268 29.495C9.38823 29.3367 7.52962 29.4197 5.60588 29.4197C7.41189 37.494 9.16028 45.2416 10.8611 53.0018C11.084 54.017 11.5249 54.4116 12.5644 54.3462C13.8444 54.2658 15.1344 54.2884 16.4169 54.3412C17.2886 54.3764 17.6994 54.1226 17.8672 53.1802C18.3631 50.3681 18.9593 47.5737 19.5555 44.7817C19.9011 43.1684 20.3194 41.5701 20.8079 39.5371C21.6646 43.3317 22.4386 46.6338 23.1499 49.9485C24.1193 54.4669 24.0993 54.4342 28.6782 54.3488C30.1235 54.3211 30.6971 53.7406 30.9902 52.3208C32.0973 46.9454 33.3598 41.6002 34.532 36.2375C35.0055 34.0662 35.3937 31.8749 35.8947 29.3217C34.264 29.3217 32.8964 29.3443 31.5262 29.3141C30.4616 29.2915 29.9957 29.6684 29.7953 30.8269C29.0739 34.9985 28.1897 39.14 27.3205 43.5353C26.4614 40.0623 25.5947 36.8305 24.8708 33.5636C23.9064 29.2035 23.954 29.2312 19.3952 29.2814C18.2279 29.294 17.767 29.6634 17.529 30.832C16.6473 35.1544 15.6404 39.4541 14.6309 43.9876ZM61.1186 9.88098C60.9107 9.91365 60.7053 9.94631 60.4974 9.97898C60.4974 11.7306 60.4724 13.4821 60.525 15.2312C60.5325 15.4674 60.9132 15.8896 61.1312 15.8946C63.0324 15.9474 64.9361 15.9248 66.474 15.9248C64.6906 13.9118 62.9046 11.8939 61.1161 9.87846L61.1186 9.88098Z" fill="#1F1F1F"/>
<path d="M46.8134 34.609V30.0705C48.4916 30.0705 50.0997 30.0705 51.7054 30.0705C55.668 30.0705 59.6332 30.1057 63.5959 30.0504C64.7206 30.0353 65.1665 30.3117 65.154 31.5381C65.1189 34.7346 65.1765 34.7723 61.9878 34.7849C57.5216 34.8025 53.058 34.7573 48.5918 34.7296C48.0457 34.7271 47.4997 34.6592 46.8134 34.6115V34.609Z" fill="#1F1F1F"/>
<path d="M46.8234 44.0632V39.5071C47.3995 39.5071 47.9255 39.5071 48.454 39.5071C53.4187 39.5071 58.3833 39.5498 63.3454 39.4769C64.7006 39.4568 65.3092 39.7935 65.1389 41.2385C65.0362 42.1131 65.1189 43.0102 65.1189 44.0632H46.8234Z" fill="#1F1F1F"/>
<path d="M46.7833 48.9383H51.5576C55.5779 48.9383 59.6007 48.976 63.621 48.9132C64.7983 48.8956 65.159 49.2625 65.1439 50.4436C65.1064 53.5422 65.159 53.5949 62.0429 53.6125C57.4089 53.6427 52.7724 53.5673 48.1384 53.5874C47.0663 53.5924 46.6105 53.2934 46.7583 52.1273C46.8835 51.1422 46.7833 50.132 46.7833 48.9358V48.9383Z" fill="#1F1F1F"/>
<path d="M138.834 45.0924C137.208 45.0924 135.58 45.0942 133.954 45.0924C123.302 45.0777 112.649 45.0629 101.997 45.0482C99.7961 45.0445 100.014 45.3597 100.001 42.9691C100.001 42.7295 100.035 42.488 100.072 41.9959H138.914C139.018 41.8042 139.123 41.6144 139.226 41.4227C138.34 40.6504 137.415 39.9205 136.576 39.1003C133.544 36.1384 130.571 33.1137 127.508 30.185C126.685 29.3979 126.53 28.8819 127.479 28.1501C127.894 27.8294 128.191 27.3557 128.499 27C134.076 32.5424 139.549 37.9834 145 43.4004C139.512 48.9299 134.061 54.4225 128.545 59.9833C128.661 59.9998 128.61 60.0091 128.586 59.9869C125.905 57.5503 126.429 58.1254 128.447 56.0813C131.483 53.0069 134.587 49.997 137.649 46.9485C138.131 46.4692 138.55 45.9237 138.996 45.4094C138.941 45.3044 138.887 45.1993 138.833 45.0924H138.834Z" fill="#1F1F1F"/>
<path d="M192.606 63.069C189.125 63.069 185.703 63.069 182.281 63.069C180.217 63.069 178.153 63.1016 176.092 63.0589C173.109 62.9961 171.826 61.7597 171.816 58.8119C171.776 47.7572 171.756 36.6999 171.773 25.6452C171.778 22.1973 172.968 21.0137 176.407 20.9659C180.087 20.9132 183.767 20.9534 187.414 20.9534C189.891 5.8401 202.075 -0.274058 211.501 0.00991272C218.229 0.210954 224.007 3.17882 228.479 8.45113C232.905 13.6707 234.48 19.7446 233.892 26.6077C237.944 26.5373 241.602 27.359 244.888 29.4851C252.23 34.2372 255.756 40.9947 254.865 49.7374C254.003 58.1812 247.919 65.2854 239.811 67.3059C237.153 67.9693 234.237 67.8613 231.464 67.6929C229.603 67.5798 228.779 67.7834 228.281 69.829C226.259 78.1219 219.601 83.9898 210.844 84.0024C201.028 84.0174 194.493 76.589 193.19 69.3942C192.834 67.4341 192.809 65.4161 192.601 63.0715L192.606 63.069ZM234.114 63.177C234.114 63.2122 234.119 63.2449 234.122 63.2801C235.487 63.1745 236.885 63.2248 238.21 62.9358C245.965 61.2495 251.396 53.5019 250.479 45.5482C249.524 37.2779 242.987 31.699 234.786 31.312C226.868 30.9376 218.231 37.5041 218.211 47.2998C218.209 48.7121 218.7 49.3957 219.837 50.1068C223.597 52.459 226.41 55.643 227.762 59.983C228.604 62.6769 229.162 63.0815 232.053 63.172C232.739 63.1921 233.426 63.1745 234.112 63.1745L234.114 63.177ZM213.101 42.0803C213.317 42.1557 213.532 42.2311 213.747 42.3064C214.371 41.1706 215.073 40.0724 215.601 38.8938C217.753 34.109 221.217 30.641 225.911 28.407C229.686 26.6127 229.851 26.394 229.473 22.1797C229.378 21.1192 229.238 20.0537 228.995 19.0209C226.943 10.3409 218.995 4.92788 210.927 4.90275C202.724 4.87762 194.776 9.98909 192.564 19.3476C192.459 19.7949 192.486 20.2749 192.436 20.9534C193.315 20.9534 193.989 20.9534 194.665 20.9534C199.044 20.9534 203.422 20.9483 207.801 20.9534C211.909 20.9609 212.978 21.951 213.014 25.9894C213.054 30.7014 212.993 35.4158 212.988 40.1277C212.988 40.7785 213.061 41.4294 213.099 42.0828L213.101 42.0803ZM197.646 63.069C197.268 66.0218 197.326 68.6705 198.405 71.2438C200.194 75.5109 204.78 79.484 211.691 79.1221C218.159 78.7828 223.501 73.8372 224.265 67.0898C224.992 60.6816 220.641 54.3513 214.521 52.8033C213.414 52.5218 212.996 52.7933 213.009 53.904C213.026 55.3465 213.029 56.7915 213.011 58.2364C212.966 61.9632 211.866 63.0614 208.174 63.069C204.745 63.0765 201.316 63.069 197.649 63.069H197.646ZM183.719 47.5436C183.819 49.4057 183.842 51.2704 184.067 53.1099C184.127 53.5999 184.726 54.2583 185.215 54.4242C190.139 56.0878 195.129 56.7387 199.871 54.002C204.076 51.5744 204.615 45.6261 200.892 42.4597C199.322 41.1228 197.25 40.3739 195.394 39.3813C194.029 38.65 192.574 38.067 191.294 37.2126C190.209 36.4863 190.482 35.4509 191.597 35.084C192.927 34.6493 194.415 34.2623 195.765 34.4281C197.824 34.6794 199.823 35.4233 202.14 36.034C202.14 34.0788 202.19 32.1162 202.087 30.1636C202.072 29.857 201.411 29.4474 200.98 29.3242C196.925 28.1557 192.854 27.9622 188.842 29.475C186.247 30.4526 184.248 32.1514 183.822 35.0413C183.346 38.268 184.273 41.0349 187.233 42.7789C188.466 43.5052 189.776 44.1033 191.061 44.7365C192.461 45.4251 193.936 45.9855 195.267 46.7871C196.727 47.6692 196.677 48.9509 195.089 49.5439C193.854 50.0038 192.343 50.3003 191.101 50.0214C188.704 49.4811 186.409 48.4809 183.722 47.5486L183.719 47.5436Z" fill="black"/>
</g>
<path d="M34.4375 96.9961L30.4824 111H28.5586L25.6777 100.766C25.554 100.329 25.4792 99.8542 25.4531 99.3398H25.4141C25.375 99.8216 25.2904 100.29 25.1602 100.746L22.2598 111H20.3555L16.2539 96.9961H18.0605L21.0391 107.738C21.1628 108.188 21.2409 108.656 21.2734 109.145H21.3223C21.3548 108.799 21.4557 108.331 21.625 107.738L24.7207 96.9961H26.293L29.2617 107.816C29.3659 108.188 29.444 108.624 29.4961 109.125H29.5352C29.5612 108.786 29.6491 108.337 29.7988 107.777L32.6602 96.9961H34.4375ZM39.7109 111.234C38.2331 111.234 37.0514 110.769 36.166 109.838C35.2871 108.9 34.8477 107.66 34.8477 106.117C34.8477 104.438 35.3066 103.126 36.2246 102.182C37.1426 101.238 38.3828 100.766 39.9453 100.766C41.4362 100.766 42.5983 101.225 43.4316 102.143C44.2715 103.061 44.6914 104.333 44.6914 105.961C44.6914 107.556 44.2389 108.835 43.334 109.799C42.4355 110.756 41.2279 111.234 39.7109 111.234ZM39.8281 102.113C38.7995 102.113 37.9857 102.465 37.3867 103.168C36.7878 103.865 36.4883 104.828 36.4883 106.059C36.4883 107.243 36.791 108.178 37.3965 108.861C38.002 109.545 38.8125 109.887 39.8281 109.887C40.8633 109.887 41.6576 109.551 42.2109 108.881C42.7708 108.21 43.0508 107.257 43.0508 106.02C43.0508 104.77 42.7708 103.806 42.2109 103.129C41.6576 102.452 40.8633 102.113 39.8281 102.113ZM52.4648 102.621C52.1849 102.406 51.7812 102.299 51.2539 102.299C50.5703 102.299 49.9974 102.621 49.5352 103.266C49.0794 103.91 48.8516 104.789 48.8516 105.902V111H47.25V101H48.8516V103.061H48.8906C49.1185 102.357 49.4668 101.811 49.9355 101.42C50.4043 101.023 50.9284 100.824 51.5078 100.824C51.9245 100.824 52.2435 100.87 52.4648 100.961V102.621ZM62.7383 111H61.1367V109.301H61.0977C60.3555 110.59 59.2096 111.234 57.6602 111.234C56.4036 111.234 55.3978 110.788 54.6426 109.896C53.8939 108.998 53.5195 107.777 53.5195 106.234C53.5195 104.581 53.9362 103.256 54.7695 102.26C55.6029 101.264 56.7129 100.766 58.0996 100.766C59.4733 100.766 60.4727 101.306 61.0977 102.387H61.1367V96.1953H62.7383V111ZM61.1367 106.479V105.004C61.1367 104.197 60.8698 103.513 60.3359 102.953C59.8021 102.393 59.125 102.113 58.3047 102.113C57.3281 102.113 56.5599 102.471 56 103.188C55.4401 103.904 55.1602 104.893 55.1602 106.156C55.1602 107.309 55.4271 108.22 55.9609 108.891C56.5013 109.555 57.224 109.887 58.1289 109.887C59.0208 109.887 59.7435 109.564 60.2969 108.92C60.8568 108.275 61.1367 107.462 61.1367 106.479Z" fill="black"/>
<path d="M165.182 110.434V108.5C165.403 108.695 165.667 108.871 165.973 109.027C166.285 109.184 166.611 109.317 166.949 109.428C167.294 109.532 167.639 109.613 167.984 109.672C168.329 109.73 168.648 109.76 168.941 109.76C169.951 109.76 170.702 109.574 171.197 109.203C171.699 108.826 171.949 108.285 171.949 107.582C171.949 107.204 171.865 106.876 171.695 106.596C171.533 106.316 171.305 106.062 171.012 105.834C170.719 105.6 170.37 105.378 169.967 105.17C169.57 104.955 169.14 104.73 168.678 104.496C168.189 104.249 167.734 103.998 167.311 103.744C166.887 103.49 166.52 103.21 166.207 102.904C165.895 102.598 165.647 102.253 165.465 101.869C165.289 101.479 165.201 101.023 165.201 100.502C165.201 99.8639 165.341 99.3105 165.621 98.8418C165.901 98.3665 166.269 97.9759 166.725 97.6699C167.18 97.3639 167.698 97.1361 168.277 96.9863C168.863 96.8366 169.459 96.7617 170.064 96.7617C171.445 96.7617 172.451 96.9277 173.082 97.2598V99.1055C172.255 98.5326 171.194 98.2461 169.898 98.2461C169.54 98.2461 169.182 98.2852 168.824 98.3633C168.466 98.4349 168.147 98.5553 167.867 98.7246C167.587 98.8939 167.359 99.112 167.184 99.3789C167.008 99.6458 166.92 99.9714 166.92 100.355C166.92 100.714 166.985 101.023 167.115 101.283C167.252 101.544 167.451 101.781 167.711 101.996C167.971 102.211 168.287 102.419 168.658 102.621C169.036 102.823 169.469 103.044 169.957 103.285C170.458 103.533 170.934 103.793 171.383 104.066C171.832 104.34 172.226 104.643 172.564 104.975C172.903 105.307 173.17 105.674 173.365 106.078C173.567 106.482 173.668 106.944 173.668 107.465C173.668 108.155 173.531 108.741 173.258 109.223C172.991 109.698 172.626 110.085 172.164 110.385C171.708 110.684 171.181 110.899 170.582 111.029C169.983 111.166 169.352 111.234 168.688 111.234C168.466 111.234 168.193 111.215 167.867 111.176C167.542 111.143 167.21 111.091 166.871 111.02C166.533 110.954 166.21 110.873 165.904 110.775C165.605 110.671 165.364 110.557 165.182 110.434ZM184.547 111H182.945V105.238C182.945 103.155 182.171 102.113 180.621 102.113C179.84 102.113 179.182 102.416 178.648 103.021C178.115 103.62 177.848 104.392 177.848 105.336V111H176.246V96.1953H177.848V102.66H177.887C178.655 101.397 179.749 100.766 181.168 100.766C183.421 100.766 184.547 102.123 184.547 104.838V111ZM194.732 111H193.131V109.438H193.092C192.395 110.635 191.37 111.234 190.016 111.234C189.02 111.234 188.238 110.971 187.672 110.443C187.112 109.916 186.832 109.216 186.832 108.344C186.832 106.475 187.932 105.388 190.133 105.082L193.131 104.662C193.131 102.963 192.444 102.113 191.07 102.113C189.866 102.113 188.779 102.523 187.809 103.344V101.703C188.792 101.078 189.924 100.766 191.207 100.766C193.557 100.766 194.732 102.009 194.732 104.496V111ZM193.131 105.941L190.719 106.273C189.977 106.378 189.417 106.563 189.039 106.83C188.661 107.09 188.473 107.556 188.473 108.227C188.473 108.715 188.645 109.115 188.99 109.428C189.342 109.734 189.807 109.887 190.387 109.887C191.181 109.887 191.835 109.61 192.35 109.057C192.87 108.497 193.131 107.79 193.131 106.938V105.941ZM202.965 102.621C202.685 102.406 202.281 102.299 201.754 102.299C201.07 102.299 200.497 102.621 200.035 103.266C199.579 103.91 199.352 104.789 199.352 105.902V111H197.75V101H199.352V103.061H199.391C199.618 102.357 199.967 101.811 200.436 101.42C200.904 101.023 201.428 100.824 202.008 100.824C202.424 100.824 202.743 100.87 202.965 100.961V102.621ZM212.74 106.4H205.68C205.706 107.514 206.005 108.373 206.578 108.979C207.151 109.584 207.939 109.887 208.941 109.887C210.068 109.887 211.103 109.516 212.047 108.773V110.277C211.168 110.915 210.006 111.234 208.561 111.234C207.148 111.234 206.038 110.782 205.23 109.877C204.423 108.965 204.02 107.686 204.02 106.039C204.02 104.483 204.459 103.217 205.338 102.24C206.223 101.257 207.32 100.766 208.629 100.766C209.938 100.766 210.95 101.189 211.666 102.035C212.382 102.882 212.74 104.057 212.74 105.561V106.4ZM211.1 105.043C211.093 104.118 210.868 103.399 210.426 102.885C209.99 102.37 209.381 102.113 208.6 102.113C207.844 102.113 207.203 102.383 206.676 102.924C206.148 103.464 205.823 104.171 205.699 105.043H211.1ZM216.812 109.555H216.773V115.6H215.172V101H216.773V102.758H216.812C217.6 101.43 218.753 100.766 220.27 100.766C221.559 100.766 222.564 101.215 223.287 102.113C224.01 103.005 224.371 104.203 224.371 105.707C224.371 107.38 223.964 108.721 223.15 109.73C222.337 110.733 221.223 111.234 219.811 111.234C218.515 111.234 217.516 110.674 216.812 109.555ZM216.773 105.521V106.918C216.773 107.745 217.04 108.448 217.574 109.027C218.115 109.6 218.798 109.887 219.625 109.887C220.595 109.887 221.354 109.516 221.9 108.773C222.454 108.031 222.73 106.999 222.73 105.678C222.73 104.564 222.473 103.692 221.959 103.061C221.445 102.429 220.748 102.113 219.869 102.113C218.938 102.113 218.189 102.439 217.623 103.09C217.057 103.734 216.773 104.545 216.773 105.521ZM231.109 111.234C229.632 111.234 228.45 110.769 227.564 109.838C226.686 108.9 226.246 107.66 226.246 106.117C226.246 104.438 226.705 103.126 227.623 102.182C228.541 101.238 229.781 100.766 231.344 100.766C232.835 100.766 233.997 101.225 234.83 102.143C235.67 103.061 236.09 104.333 236.09 105.961C236.09 107.556 235.637 108.835 234.732 109.799C233.834 110.756 232.626 111.234 231.109 111.234ZM231.227 102.113C230.198 102.113 229.384 102.465 228.785 103.168C228.186 103.865 227.887 104.828 227.887 106.059C227.887 107.243 228.189 108.178 228.795 108.861C229.4 109.545 230.211 109.887 231.227 109.887C232.262 109.887 233.056 109.551 233.609 108.881C234.169 108.21 234.449 107.257 234.449 106.02C234.449 104.77 234.169 103.806 233.609 103.129C233.056 102.452 232.262 102.113 231.227 102.113ZM239.469 98.4609C239.182 98.4609 238.938 98.3633 238.736 98.168C238.535 97.9727 238.434 97.7253 238.434 97.4258C238.434 97.1263 238.535 96.8789 238.736 96.6836C238.938 96.4818 239.182 96.3809 239.469 96.3809C239.762 96.3809 240.009 96.4818 240.211 96.6836C240.419 96.8789 240.523 97.1263 240.523 97.4258C240.523 97.7122 240.419 97.9564 240.211 98.1582C240.009 98.36 239.762 98.4609 239.469 98.4609ZM240.25 111H238.648V101H240.25V111ZM251.793 111H250.191V105.297C250.191 103.174 249.417 102.113 247.867 102.113C247.066 102.113 246.402 102.416 245.875 103.021C245.354 103.62 245.094 104.379 245.094 105.297V111H243.492V101H245.094V102.66H245.133C245.888 101.397 246.982 100.766 248.414 100.766C249.508 100.766 250.344 101.12 250.924 101.83C251.503 102.533 251.793 103.552 251.793 104.887V111ZM259.459 110.902C259.081 111.111 258.583 111.215 257.965 111.215C256.214 111.215 255.338 110.238 255.338 108.285V102.367H253.619V101H255.338V98.5586L256.939 98.041V101H259.459V102.367H256.939V108.002C256.939 108.673 257.053 109.151 257.281 109.438C257.509 109.724 257.887 109.867 258.414 109.867C258.818 109.867 259.166 109.757 259.459 109.535V110.902Z" fill="black"/>
<defs>
<clipPath id="clip0_16_506">
<rect width="255" height="84" fill="white"/>
</clipPath>
</defs>
</svg>
